<svg width="18" height="18" viewBox="0 0 18 18" fill="none" xmlns="http://www.w3.org/2000/svg">
<path d="M6.62207 6.56135C6.7644 6.12277 7.02513 5.73247 7.37565 5.4329C7.72618 5.13334 8.15316 4.93648 8.60856 4.86423C9.06396 4.79198 9.53018 4.847 9.95622 5.02336C10.3823 5.19971 10.7512 5.49062 11.0223 5.86361C11.2934 6.23659 11.4557 6.67713 11.492 7.1368C11.5282 7.59647 11.4365 8.05732 11.2272 8.46818C11.0179 8.87904 10.6995 9.22374 10.3063 9.46468C9.9132 9.70562 9.46109 9.83314 9 9.83314V10.6669M9 16.5C4.85786 16.5 1.5 13.1421 1.5 9C1.5 4.85786 4.85786 1.5 9 1.5C13.1421 1.5 16.5 4.85786 16.5 9C16.5 13.1421 13.1421 16.5 9 16.5ZM9.0415 13.1667V13.25L8.9585 13.2502V13.1667H9.0415Z" stroke="black" stroke-width="2" stroke-linecap="round" stroke-linejoin="round"/>
</svg>
