<svg width="32" height="32" viewBox="0 0 32 32" fill="none" xmlns="http://www.w3.org/2000/svg">
<rect width="32" height="32" rx="16" fill="#492982"/>
<path d="M15.375 9.125V7.25C15.375 7.08424 15.4408 6.92527 15.5581 6.80806C15.6753 6.69085 15.8342 6.625 16 6.625C16.1658 6.625 16.3247 6.69085 16.4419 6.80806C16.5592 6.92527 16.625 7.08424 16.625 7.25V9.125C16.625 9.29076 16.5592 9.44973 16.4419 9.56694C16.3247 9.68415 16.1658 9.75 16 9.75C15.8342 9.75 15.6753 9.68415 15.5581 9.56694C15.4408 9.44973 15.375 9.29076 15.375 9.125ZM21 16C21 16.9889 20.7068 17.9556 20.1573 18.7779C19.6079 19.6001 18.827 20.241 17.9134 20.6194C16.9998 20.9978 15.9945 21.0969 15.0245 20.9039C14.0546 20.711 13.1637 20.2348 12.4645 19.5355C11.7652 18.8363 11.289 17.9454 11.0961 16.9755C10.9031 16.0055 11.0022 15.0002 11.3806 14.0866C11.759 13.173 12.3999 12.3921 13.2221 11.8427C14.0444 11.2932 15.0111 11 16 11C17.3256 11.0014 18.5966 11.5287 19.5339 12.4661C20.4713 13.4034 20.9986 14.6744 21 16ZM19.75 16C19.75 15.2583 19.5301 14.5333 19.118 13.9166C18.706 13.2999 18.1203 12.8193 17.4351 12.5355C16.7498 12.2516 15.9958 12.1774 15.2684 12.3221C14.541 12.4668 13.8728 12.8239 13.3483 13.3483C12.8239 13.8728 12.4668 14.541 12.3221 15.2684C12.1774 15.9958 12.2516 16.7498 12.5355 17.4351C12.8193 18.1203 13.2999 18.706 13.9166 19.118C14.5333 19.5301 15.2583 19.75 16 19.75C16.9942 19.749 17.9475 19.3535 18.6505 18.6505C19.3535 17.9475 19.749 16.9942 19.75 16ZM10.5578 11.4422C10.6751 11.5595 10.8341 11.6253 11 11.6253C11.1659 11.6253 11.3249 11.5595 11.4422 11.4422C11.5595 11.3249 11.6253 11.1659 11.6253 11C11.6253 10.8341 11.5595 10.6751 11.4422 10.5578L10.1922 9.30781C10.0749 9.19054 9.91585 9.12465 9.75 9.12465C9.58415 9.12465 9.42509 9.19054 9.30781 9.30781C9.19054 9.42509 9.12465 9.58415 9.12465 9.75C9.12465 9.91585 9.19054 10.0749 9.30781 10.1922L10.5578 11.4422ZM10.5578 20.5578L9.30781 21.8078C9.19054 21.9251 9.12465 22.0841 9.12465 22.25C9.12465 22.4159 9.19054 22.5749 9.30781 22.6922C9.42509 22.8095 9.58415 22.8753 9.75 22.8753C9.91585 22.8753 10.0749 22.8095 10.1922 22.6922L11.4422 21.4422C11.5003 21.3841 11.5463 21.3152 11.5777 21.2393C11.6092 21.1634 11.6253 21.0821 11.6253 21C11.6253 20.9179 11.6092 20.8366 11.5777 20.7607C11.5463 20.6848 11.5003 20.6159 11.4422 20.5578C11.3841 20.4997 11.3152 20.4537 11.2393 20.4223C11.1634 20.3908 11.0821 20.3747 11 20.3747C10.9179 20.3747 10.8366 20.3908 10.7607 20.4223C10.6848 20.4537 10.6159 20.4997 10.5578 20.5578ZM21 11.625C21.0821 11.6251 21.1634 11.609 21.2393 11.5776C21.3152 11.5462 21.3841 11.5002 21.4422 11.4422L22.6922 10.1922C22.8095 10.0749 22.8753 9.91585 22.8753 9.75C22.8753 9.58415 22.8095 9.42509 22.6922 9.30781C22.5749 9.19054 22.4159 9.12465 22.25 9.12465C22.0841 9.12465 21.9251 9.19054 21.8078 9.30781L20.5578 10.5578C20.4703 10.6452 20.4107 10.7566 20.3865 10.8779C20.3624 10.9992 20.3748 11.125 20.4221 11.2392C20.4695 11.3535 20.5496 11.4512 20.6525 11.5198C20.7554 11.5885 20.8763 11.6251 21 11.625ZM21.4422 20.5578C21.3249 20.4405 21.1659 20.3747 21 20.3747C20.8341 20.3747 20.6751 20.4405 20.5578 20.5578C20.4405 20.6751 20.3747 20.8341 20.3747 21C20.3747 21.1659 20.4405 21.3249 20.5578 21.4422L21.8078 22.6922C21.8659 22.7503 21.9348 22.7963 22.0107 22.8277C22.0866 22.8592 22.1679 22.8753 22.25 22.8753C22.3321 22.8753 22.4134 22.8592 22.4893 22.8277C22.5652 22.7963 22.6341 22.7503 22.6922 22.6922C22.7503 22.6341 22.7963 22.5652 22.8277 22.4893C22.8592 22.4134 22.8753 22.3321 22.8753 22.25C22.8753 22.1679 22.8592 22.0866 22.8277 22.0107C22.7963 21.9348 22.7503 21.8659 22.6922 21.8078L21.4422 20.5578ZM9.75 16C9.75 15.8342 9.68415 15.6753 9.56694 15.5581C9.44973 15.4408 9.29076 15.375 9.125 15.375H7.25C7.08424 15.375 6.92527 15.4408 6.80806 15.5581C6.69085 15.6753 6.625 15.8342 6.625 16C6.625 16.1658 6.69085 16.3247 6.80806 16.4419C6.92527 16.5592 7.08424 16.625 7.25 16.625H9.125C9.29076 16.625 9.44973 16.5592 9.56694 16.4419C9.68415 16.3247 9.75 16.1658 9.75 16ZM16 22.25C15.8342 22.25 15.6753 22.3158 15.5581 22.4331C15.4408 22.5503 15.375 22.7092 15.375 22.875V24.75C15.375 24.9158 15.4408 25.0747 15.5581 25.1919C15.6753 25.3092 15.8342 25.375 16 25.375C16.1658 25.375 16.3247 25.3092 16.4419 25.1919C16.5592 25.0747 16.625 24.9158 16.625 24.75V22.875C16.625 22.7092 16.5592 22.5503 16.4419 22.4331C16.3247 22.3158 16.1658 22.25 16 22.25ZM24.75 15.375H22.875C22.7092 15.375 22.5503 15.4408 22.4331 15.5581C22.3158 15.6753 22.25 15.8342 22.25 16C22.25 16.1658 22.3158 16.3247 22.4331 16.4419C22.5503 16.5592 22.7092 16.625 22.875 16.625H24.75C24.9158 16.625 25.0747 16.5592 25.1919 16.4419C25.3092 16.3247 25.375 16.1658 25.375 16C25.375 15.8342 25.3092 15.6753 25.1919 15.5581C25.0747 15.4408 24.9158 15.375 24.75 15.375Z" fill="white"/>
</svg>
