<svg width="15" height="15" viewBox="0 0 15 15" fill="none" xmlns="http://www.w3.org/2000/svg">
<path d="M5.33346 2.16665H3.83346C2.90003 2.16665 2.43298 2.16665 2.07646 2.3483C1.76285 2.50809 1.50807 2.76287 1.34828 3.07648C1.16663 3.433 1.16663 3.90005 1.16663 4.83348V11.1668C1.16663 12.1002 1.16663 12.5667 1.34828 12.9232C1.50807 13.2368 1.76285 13.492 2.07646 13.6518C2.43263 13.8333 2.89912 13.8333 3.83072 13.8333H10.1692C11.1008 13.8333 11.5666 13.8333 11.9228 13.6518C12.2364 13.492 12.492 13.2366 12.6518 12.923C12.8333 12.5668 12.8333 12.1008 12.8333 11.1692V9.66665M13.6666 5.49998V1.33331M13.6666 1.33331H9.49996M13.6666 1.33331L7.83329 7.16665" stroke="black" stroke-width="2" stroke-linecap="round" stroke-linejoin="round"/>
</svg>
