<svg width="16" height="18" viewBox="0 0 16 18" fill="none" xmlns="http://www.w3.org/2000/svg">
<path d="M10.5 13.1667V14C10.5 15.3807 9.38075 16.5 8.00004 16.5C6.61933 16.5 5.50004 15.3807 5.50004 14V13.1667M10.5 13.1667H5.50004M10.5 13.1667H13.4921C13.8109 13.1667 13.971 13.1667 14.1001 13.1231C14.3467 13.04 14.5396 12.8464 14.6228 12.5998C14.6665 12.4702 14.6665 12.3096 14.6665 11.9883C14.6665 11.8477 14.6663 11.7774 14.6553 11.7104C14.6345 11.5837 14.5854 11.4636 14.5105 11.3593C14.4709 11.3043 14.4207 11.254 14.3216 11.1549L13.9969 10.8302C13.8922 10.7255 13.8334 10.5834 13.8334 10.4353V7.33333C13.8334 4.11167 11.2217 1.49999 8.00004 1.5C4.77839 1.50001 2.16671 4.11168 2.16671 7.33333V10.4354C2.16671 10.5835 2.10774 10.7255 2.00301 10.8302L1.67843 11.1548C1.57901 11.2542 1.52924 11.3042 1.48962 11.3594C1.41475 11.4636 1.36516 11.5837 1.34437 11.7104C1.33337 11.7774 1.33337 11.8477 1.33337 11.9883C1.33337 12.3096 1.33337 12.4702 1.37708 12.5998C1.46025 12.8463 1.65404 13.04 1.90059 13.1231C2.02967 13.1667 2.18922 13.1667 2.508 13.1667H5.50004" stroke="black" stroke-width="2" stroke-linecap="round" stroke-linejoin="round"/>
</svg>
