<svg width="14" height="16" viewBox="0 0 14 16" fill="none" xmlns="http://www.w3.org/2000/svg">
<path d="M1.16663 12.4447V3.55582C1.16663 2.82285 1.16663 2.45596 1.32087 2.23909C1.45549 2.04981 1.66299 1.92554 1.89335 1.89582C2.1572 1.86179 2.4808 2.03438 3.12708 2.37906L11.4604 6.82351L11.4634 6.82485C12.1777 7.20576 12.5349 7.39631 12.6521 7.65027C12.7543 7.87182 12.7543 8.12757 12.6521 8.34911C12.5348 8.60344 12.1766 8.79476 11.4604 9.17675L3.12708 13.6212C2.48033 13.9661 2.15729 14.138 1.89335 14.104C1.66299 14.0743 1.45549 13.95 1.32087 13.7608C1.16663 13.5439 1.16663 13.1777 1.16663 12.4447Z" stroke="black" stroke-width="2" stroke-linecap="round" stroke-linejoin="round"/>
</svg>
