<svg width="19" height="18" viewBox="0 0 19 18" fill="none" xmlns="http://www.w3.org/2000/svg">
<path d="M17.25 15.8125H17.3125V15.75V5.25V5.1875H17.25H2.25H2.24991C2.00155 5.18786 1.75497 5.14563 1.52088 5.06265L1.4375 5.0331V5.12156V15C1.4375 15.2155 1.5231 15.4222 1.67548 15.5745C1.82785 15.7269 2.03451 15.8125 2.25 15.8125H17.25ZM2.25 3.8125H17.25C17.6312 3.8125 17.9969 3.96395 18.2665 4.23353C18.536 4.50312 18.6875 4.86875 18.6875 5.25V15.75C18.6875 16.1312 18.536 16.4969 18.2665 16.7665C17.9969 17.036 17.6312 17.1875 17.25 17.1875H2.25C1.66984 17.1875 1.11344 16.957 0.703204 16.5468C0.292968 16.1366 0.0625 15.5802 0.0625 15V3C0.0625 2.41984 0.292968 1.86344 0.703204 1.4532C1.11344 1.04297 1.66984 0.8125 2.25 0.8125H15C15.1823 0.8125 15.3572 0.884933 15.4861 1.01386C15.6151 1.1428 15.6875 1.31766 15.6875 1.5C15.6875 1.68234 15.6151 1.8572 15.4861 1.98614C15.3572 2.11507 15.1823 2.1875 15 2.1875H2.25C2.03451 2.1875 1.82785 2.2731 1.67548 2.42548C1.5231 2.57785 1.4375 2.78451 1.4375 3C1.4375 3.21549 1.5231 3.42215 1.67548 3.57452C1.82785 3.7269 2.03451 3.8125 2.25 3.8125ZM12.8125 10.125C12.8125 9.91486 12.8748 9.70943 12.9916 9.53471C13.1083 9.35998 13.2743 9.2238 13.4684 9.14338C13.6625 9.06296 13.8762 9.04192 14.0823 9.08292C14.2884 9.12391 14.4777 9.22511 14.6263 9.3737C14.7749 9.52229 14.8761 9.71161 14.9171 9.91772C14.9581 10.1238 14.937 10.3375 14.8566 10.5316C14.7762 10.7257 14.64 10.8917 14.4653 11.0084C14.2906 11.1252 14.0851 11.1875 13.875 11.1875C13.5932 11.1875 13.323 11.0756 13.1237 10.8763C12.9244 10.677 12.8125 10.4068 12.8125 10.125Z" fill="black" stroke="black" stroke-width="0.125"/>
</svg>
