<svg width="38" height="38" viewBox="0 0 38 38" fill="none" xmlns="http://www.w3.org/2000/svg">
<path d="M13 0.5C6.09644 0.5 0.5 6.09644 0.5 13V25C0.5 31.9036 6.09644 37.5 13 37.5H25C31.9036 37.5 37.5 31.9036 37.5 25V13C37.5 6.09644 31.9036 0.5 25 0.5H13Z" stroke="#492982"/>
<path d="M11 22V23.8002C11 24.9203 11 25.4801 11.218 25.9079C11.4097 26.2842 11.7155 26.5905 12.0918 26.7822C12.5192 27 13.079 27 14.1969 27H19M11 22V16M11 22H19M11 16V14.2002C11 13.0801 11 12.5196 11.218 12.0918C11.4097 11.7155 11.7155 11.4097 12.0918 11.218C12.5196 11 13.0801 11 14.2002 11H19M11 16H19M19 11H23.8002C24.9203 11 25.4801 11 25.9079 11.218C26.2842 11.4097 26.5905 11.7155 26.7822 12.0918C27 12.5192 27 13.079 27 14.1969V16M19 11V16M19 16V22M19 16H27M19 22V27M19 22H27M19 27H23.8036C24.9215 27 25.4805 27 25.9079 26.7822C26.2842 26.5905 26.5905 26.2842 26.7822 25.9079C27 25.4805 27 24.9215 27 23.8036V22M27 22V16" stroke="#492982" stroke-width="1.5" stroke-linecap="round" stroke-linejoin="round"/>
</svg>
