<svg width="22" height="22" viewBox="0 0 22 22" fill="none" xmlns="http://www.w3.org/2000/svg">
<path d="M11.7837 2.4444V2.5069H11.8462H20.3077C20.7407 2.5069 21.1555 2.67256 21.461 2.96672C21.7664 3.2608 21.9375 3.65916 21.9375 4.074V16.296C21.9375 16.7108 21.7664 17.1092 21.461 17.4033C21.1555 17.6974 20.7407 17.8631 20.3077 17.8631H16.1446H16.0114L16.0965 17.9655L18.3822 20.7155C18.4464 20.7927 18.494 20.8812 18.5225 20.9759C18.551 21.0706 18.5598 21.1697 18.5485 21.2677C18.5372 21.3656 18.506 21.4605 18.4565 21.547C18.4071 21.6335 18.3403 21.7099 18.2599 21.7718C18.1796 21.8338 18.0872 21.8799 17.988 21.9076C17.8889 21.9353 17.785 21.9438 17.6824 21.9329C17.5798 21.9219 17.4804 21.8915 17.3902 21.8437C17.2999 21.7958 17.2204 21.7313 17.1563 21.6541L14.0265 17.8857L14.0078 17.8631H13.9785H8.02154H7.9922L7.97346 17.8857L4.84375 21.6541C4.71415 21.8101 4.52499 21.9107 4.31761 21.9329C4.11021 21.9551 3.90244 21.8969 3.74007 21.7718C3.57777 21.6468 3.47428 21.4653 3.45147 21.2677C3.42866 21.07 3.48825 20.8714 3.61778 20.7155C3.61778 20.7155 3.61778 20.7155 3.61779 20.7155L5.90345 17.9655L5.9886 17.8631H5.85538H1.69231C1.25931 17.8631 0.8445 17.6974 0.539018 17.4033C0.233615 17.1092 0.0625 16.7108 0.0625 16.296V4.074C0.0625 3.65916 0.233615 3.2608 0.539018 2.96672C0.8445 2.67256 1.25931 2.5069 1.69231 2.5069H10.1538H10.2163V2.4444V0.8148C10.2163 0.616055 10.2983 0.424951 10.445 0.28367C10.5918 0.142311 10.7914 0.0625 11 0.0625C11.2086 0.0625 11.4082 0.142311 11.555 0.28367C11.7017 0.424951 11.7837 0.616055 11.7837 0.8148V2.4444ZM20.3077 16.3585H20.3702V16.296V4.074V4.0115H20.3077H1.69231H1.62981V4.074V16.296V16.3585H1.69231H20.3077ZM8.39904 10.5924V13.0368C8.39904 13.2355 8.31707 13.4266 8.17035 13.5679C8.02356 13.7093 7.82397 13.7891 7.61538 13.7891C7.4068 13.7891 7.20721 13.7093 7.06042 13.5679C6.9137 13.4266 6.83173 13.2355 6.83173 13.0368V10.5924C6.83173 10.3937 6.9137 10.2026 7.06042 10.0613C7.20721 9.91991 7.4068 9.8401 7.61538 9.8401C7.82397 9.8401 8.02356 9.91991 8.17035 10.0613C8.31707 10.2026 8.39904 10.3937 8.39904 10.5924ZM11.7837 8.9628V13.0368C11.7837 13.2355 11.7017 13.4266 11.555 13.5679C11.4082 13.7093 11.2086 13.7891 11 13.7891C10.7914 13.7891 10.5918 13.7093 10.445 13.5679C10.2983 13.4266 10.2163 13.2355 10.2163 13.0368V8.9628C10.2163 8.76406 10.2983 8.57295 10.445 8.43167C10.5918 8.29031 10.7914 8.2105 11 8.2105C11.2086 8.2105 11.4082 8.29031 11.555 8.43167C11.7017 8.57295 11.7837 8.76406 11.7837 8.9628ZM15.1683 7.3332V13.0368C15.1683 13.2355 15.0863 13.4266 14.9396 13.5679C14.7928 13.7093 14.5932 13.7891 14.3846 13.7891C14.176 13.7891 13.9764 13.7093 13.8296 13.5679C13.6829 13.4266 13.601 13.2355 13.601 13.0368V7.3332C13.601 7.13446 13.6829 6.94335 13.8296 6.80207C13.9764 6.66071 14.176 6.5809 14.3846 6.5809C14.5932 6.5809 14.7928 6.66071 14.9396 6.80207C15.0863 6.94335 15.1683 7.13446 15.1683 7.3332Z" fill="white" stroke="white" stroke-width="0.125"/>
</svg>
