<svg width="38" height="38" viewBox="0 0 38 38" fill="none" xmlns="http://www.w3.org/2000/svg">
<path d="M13 0.5C6.09644 0.5 0.5 6.09644 0.5 13V25C0.5 31.9036 6.09644 37.5 13 37.5H25C31.9036 37.5 37.5 31.9036 37.5 25V13C37.5 6.09644 31.9036 0.5 25 0.5H13Z" stroke="#492982"/>
<path d="M25.6667 13.6667C25.6667 13.2 25.6664 12.9665 25.5756 12.7882C25.4957 12.6314 25.3687 12.504 25.2119 12.4241C25.0336 12.3333 24.7998 12.3333 24.333 12.3333H13.6664C13.1997 12.3333 12.9665 12.3333 12.7883 12.4241C12.6315 12.504 12.5041 12.6314 12.4242 12.7882C12.3334 12.9665 12.3334 13.2 12.3334 13.6667V14.2811C12.3334 14.4849 12.3334 14.5869 12.3564 14.6828C12.3768 14.7679 12.4106 14.8491 12.4563 14.9236C12.5078 15.0077 12.58 15.0799 12.724 15.2239L16.9429 19.4429C17.0871 19.587 17.1587 19.6587 17.2103 19.7428C17.256 19.8173 17.2902 19.8988 17.3106 19.9839C17.3334 20.0788 17.3334 20.1796 17.3334 20.3793V24.3425C17.3334 25.0568 17.3334 25.4142 17.4838 25.6293C17.6152 25.8172 17.8179 25.9425 18.0446 25.976C18.3043 26.0143 18.624 25.8548 19.2629 25.5353L19.9296 25.202C20.1971 25.0682 20.3306 25.0011 20.4283 24.9013C20.5147 24.813 20.5809 24.707 20.6211 24.5903C20.6667 24.4582 20.6667 24.3083 20.6667 24.0091V20.3855C20.6667 20.1817 20.6667 20.0798 20.6897 19.9839C20.7101 19.8988 20.7439 19.8173 20.7896 19.7428C20.8408 19.6592 20.9123 19.5878 21.0545 19.4456L21.0573 19.4429L25.2763 15.2239C25.4204 15.0798 25.4921 15.0077 25.5436 14.9236C25.5893 14.8491 25.6235 14.7679 25.6439 14.6828C25.6667 14.5879 25.6667 14.487 25.6667 14.2873V13.6667Z" stroke="#492982" stroke-width="2" stroke-linecap="round" stroke-linejoin="round"/>
</svg>
