<svg width="100" height="30" viewBox="0 0 100 30" fill="none" xmlns="http://www.w3.org/2000/svg">
<path d="M8.40364 27.49C6.85404 27.49 5.44747 27.0532 4.18394 26.1795C2.92041 25.3058 1.90721 24.1167 1.14433 22.612C0.381442 21.1074 0 19.3964 0 17.4792C0 15.562 0.381442 13.851 1.14433 12.3464C1.90721 10.8417 2.94426 9.66468 4.25546 8.81528C5.56667 7.96588 7.04476 7.54117 8.68972 7.54117C9.64333 7.54117 10.5135 7.68679 11.3002 7.97801C12.0869 8.24497 12.7783 8.63326 13.3743 9.14291C13.9703 9.65255 14.459 10.235 14.8405 10.8903C15.2458 11.5455 15.5199 12.2493 15.663 13.0016L14.6974 12.7468V7.94161H19.1317V27.126H14.6617V22.5392L15.6987 22.3572C15.5318 23.0125 15.2219 23.6556 14.769 24.2866C14.3398 24.8933 13.7915 25.4393 13.124 25.9247C12.4803 26.3858 11.7532 26.762 10.9426 27.0532C10.1559 27.3444 9.30957 27.49 8.40364 27.49ZM9.61949 23.5221C10.6446 23.5221 11.5505 23.2673 12.3373 22.7576C13.124 22.248 13.7319 21.5442 14.161 20.6463C14.614 19.7241 14.8405 18.6684 14.8405 17.4792C14.8405 16.3143 14.614 15.2829 14.161 14.3849C13.7319 13.487 13.124 12.7832 12.3373 12.2736C11.5505 11.7639 10.6446 11.5091 9.61949 11.5091C8.59436 11.5091 7.68844 11.7639 6.90172 12.2736C6.13883 12.7832 5.54283 13.487 5.11371 14.3849C4.68458 15.2829 4.47002 16.3143 4.47002 17.4792C4.47002 18.6684 4.68458 19.7241 5.11371 20.6463C5.54283 21.5442 6.13883 22.248 6.90172 22.7576C7.68844 23.2673 8.59436 23.5221 9.61949 23.5221Z" fill="#492982"/>
<path d="M22.9438 27.126V7.94161H27.3423V27.126H22.9438ZM25.0894 5.20563C24.2073 5.20563 23.516 4.98721 23.0153 4.55038C22.5385 4.08927 22.3001 3.44615 22.3001 2.62102C22.3001 1.84442 22.5504 1.21344 23.0511 0.728062C23.5517 0.242687 24.2312 0 25.0894 0C25.9953 0 26.6867 0.230553 27.1635 0.691659C27.6641 1.12849 27.9145 1.77161 27.9145 2.62102C27.9145 3.37335 27.6641 3.9922 27.1635 4.47757C26.6628 4.96294 25.9715 5.20563 25.0894 5.20563Z" fill="#492982"/>
<path d="M65.0629 21.2651L64.2046 17.0788L73.1447 7.94161H79.0093L65.0629 21.2651ZM60.9504 27.126V0.187765H65.3489V27.126H60.9504ZM73.6811 27.126L66.7436 18.5713L69.8547 15.8775L79.1166 27.126H73.6811Z" fill="black"/>
<path d="M85.9462 21.2651L85.088 17.0788L94.028 7.94161H99.8927L85.9462 21.2651ZM81.8338 27.126V0.187765H86.2323V27.126H81.8338ZM94.5645 27.126L87.627 18.5713L90.7381 15.8775L100 27.126H94.5645Z" fill="black"/>
<path d="M55.0567 10.6109C54.7708 10.0947 54.448 9.60164 54.0889 9.13565L49.8106 9.13565C49.5302 9.13565 49.3028 9.45551 49.3028 9.85007V10.0287C49.3028 10.4232 49.5302 10.7431 49.8106 10.7431L54.7622 10.7431C54.872 10.7431 54.9736 10.6941 55.0567 10.6109Z" fill="black"/>
<path d="M56.455 14.5945C56.3565 14.0465 56.2262 13.5097 56.0647 12.987H55.7145C55.434 12.987 55.2066 13.3069 55.2066 13.7015V13.8801C55.2066 14.2746 55.434 14.5945 55.7145 14.5945H56.455Z" fill="black"/>
<path d="M56.6275 18.4459C56.6478 18.2269 56.6624 18.0052 56.671 17.7808C56.6832 17.4649 56.6857 17.1506 56.6786 16.8384H55.7145C55.434 16.8384 55.2066 17.1583 55.2066 17.5528V17.7314C55.2066 18.126 55.434 18.4459 55.7145 18.4459H56.6275Z" fill="black"/>
<path d="M55.5817 22.2972C55.7736 21.8933 55.943 21.4737 56.0876 21.0391C55.999 20.8299 55.8367 20.6898 55.651 20.6898H50.6994C50.4189 20.6898 50.1915 21.0096 50.1915 21.4042V21.5828C50.1915 21.9774 50.4189 22.2972 50.6994 22.2972H55.5817Z" fill="black"/>
<path d="M52.5726 26.1486C53.0346 25.764 53.4678 25.3447 53.8666 24.8924C53.7782 24.6822 53.6153 24.5412 53.4291 24.5412H47.3348C47.0544 24.5412 46.827 24.861 46.827 25.2556V25.4342C46.827 25.8288 47.0544 26.1486 47.3348 26.1486H52.5726Z" fill="black"/>
<path d="M43.592 29.0347C43.7952 29.0567 43.9837 29.0758 44.1505 29.0915C45.6505 29.1071 47.1379 28.8657 48.5358 28.3926H44.0972C43.8341 28.3926 43.6177 28.6741 43.592 29.0347Z" fill="black"/>
<path d="M33.0225 28.3926L32.2026 30L33.1783 30C33.4588 30 33.6862 29.6801 33.6862 29.2856V29.107C33.6862 28.7124 33.4588 28.3926 33.1783 28.3926H33.0225Z" fill="black"/>
<path d="M34.1841 24.5412C34.3597 24.7551 34.5329 24.9436 34.6993 25.1051L34.167 26.1486H34.6384C34.9189 26.1486 35.1463 25.8288 35.1463 25.4342V25.2556C35.1463 24.861 34.9189 24.5412 34.6384 24.5412H34.1841Z" fill="black"/>
<path d="M32.1915 20.6898C32.3658 21.2666 32.5738 21.8041 32.8019 22.2972H35.5272C35.8076 22.2972 36.035 21.9774 36.035 21.5828V21.4042C36.035 21.0097 35.8076 20.6898 35.5272 20.6898H32.1915Z" fill="black"/>
<path d="M31.6587 16.8384C31.6487 17.3926 31.6755 17.9292 31.7326 18.4459H35.5906C35.8711 18.4459 36.0985 18.126 36.0985 17.7314V17.5528C36.0985 17.1583 35.8711 16.8384 35.5906 16.8384H31.6587Z" fill="black"/>
<path d="M32.3159 12.987C32.1387 13.5329 32.0009 14.0693 31.8982 14.5945H34.448C34.7284 14.5945 34.9558 14.2746 34.9558 13.8801V13.7015C34.9558 13.3069 34.7284 12.987 34.448 12.987H32.3159Z" fill="black"/>
<path d="M34.4392 9.13565C33.9844 9.68738 33.6071 10.2349 33.3062 10.7431L34.7019 10.7431C34.9824 10.7431 35.2098 10.4232 35.2098 10.0287V9.85007C35.2098 9.45551 34.9824 9.13565 34.7019 9.13565H34.4392Z" fill="black"/>
<path d="M39.7877 5.28427C38.6704 5.69469 37.6836 6.24998 36.8248 6.87816C36.8568 6.88706 36.8899 6.89172 36.9238 6.89172L41.8754 6.89172C42.1559 6.89172 42.3832 6.57186 42.3832 6.1773V5.99869C42.3832 5.60413 42.1559 5.28427 41.8754 5.28427L39.7877 5.28427Z" fill="black"/>
<path d="M48.6472 5.28427L47.3348 5.28427C47.0544 5.28427 46.827 5.60413 46.827 5.99869V6.1773C46.827 6.57186 47.0544 6.89172 47.3348 6.89172L51.7796 6.89172C50.8591 6.22476 49.8136 5.67992 48.6472 5.28427Z" fill="black"/>
<path d="M35.2216 29.9138L39.0525 28.3926H35.4637C35.1832 28.3926 34.9558 28.7124 34.9558 29.107V29.2856C34.9558 29.5568 35.0633 29.7928 35.2216 29.9138Z" fill="black"/>
<path d="M39.8552 28.3926C40.3808 28.576 41.3463 28.7444 42.2924 28.875C42.2239 28.5943 42.0347 28.3926 41.8119 28.3926L39.8552 28.3926Z" fill="black"/>
<path d="M45.5573 5.99869C45.5573 5.60413 45.33 5.28427 45.0495 5.28427L44.1607 5.28427C43.8802 5.28427 43.6529 5.60413 43.6529 5.99869V6.1773C43.6529 6.57186 43.8802 6.89172 44.1607 6.89172H45.0495C45.33 6.89172 45.5573 6.57186 45.5573 6.1773V5.99869Z" fill="black"/>
<path d="M47.5253 9.13565C47.8058 9.13565 48.0331 9.45551 48.0331 9.85007V10.0287C48.0331 10.4232 47.8058 10.7431 47.5253 10.7431L40.1614 10.7431C39.8809 10.7431 39.6535 10.4232 39.6535 10.0287V9.85007C39.6535 9.45551 39.8809 9.13565 40.1614 9.13565L47.5253 9.13565Z" fill="black"/>
<path d="M38.3839 9.85007C38.3839 9.45551 38.1565 9.13565 37.876 9.13565H36.9872C36.7068 9.13565 36.4794 9.45551 36.4794 9.85007V10.0287C36.4794 10.4232 36.7068 10.7431 36.9872 10.7431H37.876C38.1565 10.7431 38.3839 10.4232 38.3839 10.0287V9.85007Z" fill="black"/>
<path d="M53.937 13.7015C53.937 13.3069 53.7096 12.987 53.4291 12.987L36.7333 12.987C36.4528 12.987 36.2255 13.3069 36.2255 13.7015V13.8801C36.2255 14.2746 36.4528 14.5945 36.7333 14.5945L53.4291 14.5945C53.7096 14.5945 53.937 14.2746 53.937 13.8801V13.7015Z" fill="black"/>
<path d="M53.937 17.5528C53.937 17.1583 53.7096 16.8384 53.4291 16.8384L50.6994 16.8384C50.4189 16.8384 50.1915 17.1583 50.1915 17.5528V17.7314C50.1915 18.126 50.4189 18.4459 50.6994 18.4459H53.4291C53.7096 18.4459 53.937 18.126 53.937 17.7314V17.5528Z" fill="black"/>
<path d="M48.414 16.8384C48.6945 16.8384 48.9219 17.1583 48.9219 17.5528V17.7314C48.9219 18.126 48.6945 18.4459 48.414 18.4459H41.0501C40.7696 18.4459 40.5422 18.126 40.5422 17.7314V17.5528C40.5422 17.1583 40.7696 16.8384 41.0501 16.8384L48.414 16.8384Z" fill="black"/>
<path d="M39.2726 17.5528C39.2726 17.1583 39.0452 16.8384 38.7647 16.8384H37.876C37.5955 16.8384 37.3681 17.1583 37.3681 17.5528V17.7314C37.3681 18.126 37.5955 18.4459 37.876 18.4459H38.7647C39.0452 18.4459 39.2726 18.126 39.2726 17.7314V17.5528Z" fill="black"/>
<path d="M48.9219 21.4042C48.9219 21.0096 48.6945 20.6898 48.414 20.6898L37.8125 20.6898C37.532 20.6898 37.3047 21.0097 37.3047 21.4042V21.5828C37.3047 21.9774 37.532 22.2972 37.8125 22.2972L48.414 22.2972C48.6945 22.2972 48.9219 21.9774 48.9219 21.5828V21.4042Z" fill="black"/>
<path d="M45.0495 24.5412C45.33 24.5412 45.5573 24.861 45.5573 25.2556V25.4342C45.5573 25.8288 45.33 26.1486 45.0495 26.1486H44.1607C43.8802 26.1486 43.6529 25.8288 43.6529 25.4342V25.2556C43.6529 24.861 43.8802 24.5412 44.1607 24.5412H45.0495Z" fill="black"/>
<path d="M42.3832 25.2556C42.3832 24.861 42.1559 24.5412 41.8754 24.5412H36.9238C36.6433 24.5412 36.4159 24.861 36.4159 25.2556V25.4342C36.4159 25.8288 36.6433 26.1486 36.9238 26.1486L41.8754 26.1486C42.1559 26.1486 42.3832 25.8288 42.3832 25.4342V25.2556Z" fill="black"/>
</svg>
